<svg xmlns="http://www.w3.org/2000/svg" viewBox="0 0 100 100">
  <circle cx="50" cy="50" r="50" fill="#FFE4B5"/>
  <ellipse cx="35" cy="45" rx="7" ry="9" fill="#fff"/>
  <ellipse cx="65" cy="45" rx="7" ry="9" fill="#fff"/>
  <circle cx="36" cy="46" r="3.5" fill="#333"/>
  <circle cx="66" cy="46" r="3.5" fill="#333"/>
  <circle cx="37" cy="44" r="1.5" fill="#fff"/>
  <circle cx="67" cy="44" r="1.5" fill="#fff"/>
  <ellipse cx="50" cy="58" rx="5" ry="4" fill="#FFB6C1"/>
  <path d="M 42 68 Q 50 72 58 68" stroke="#8B4513" stroke-width="2" fill="none" stroke-linecap="round"/>
  <ellipse cx="30" cy="30" rx="14" ry="12" fill="#FFE4B5"/>
  <ellipse cx="70" cy="30" rx="14" ry="12" fill="#FFE4B5"/>
  <ellipse cx="30" cy="30" rx="9" ry="8" fill="#FFEFD5"/>
  <ellipse cx="70" cy="30" rx="9" ry="8" fill="#FFEFD5"/>
  <ellipse cx="50" cy="20" rx="8" ry="6" fill="#FFE4B5"/>
  <ellipse cx="50" cy="20" rx="5" ry="4" fill="#FFEFD5"/>
  <ellipse cx="25" cy="60" rx="6" ry="4" fill="#FFB6C1" opacity="0.4"/>
  <ellipse cx="75" cy="60" rx="6" ry="4" fill="#FFB6C1" opacity="0.4"/>
</svg>
